<?xml version="1.0" encoding="UTF-8"?>
<svg width="12px" height="8px" viewBox="0 0 12 8" version="1.1" xmlns="http://www.w3.org/2000/svg" xmlns:xlink="http://www.w3.org/1999/xlink">
    <!-- Generator: Sketch 64 (93537) - https://sketch.com -->
    <title>btn-arrow-icon-teal</title>
    <desc>Created with Sketch.</desc>
    <g id="Symbols" stroke="none" stroke-width="1" fill="none" fill-rule="evenodd">
        <g id="buttons/btn-icon" transform="translate(-115.000000, -16.000000)" fill="#61CAEA">
            <path d="M122.652631,16.1531751 C122.440058,16.3614931 122.440058,16.7073011 122.648462,16.9197856 L125.182667,19.4570997 L115.537685,19.4570997 C115.24175,19.4570997 115,19.6987487 115,19.9987267 C115,20.2987047 115.24175,20.5403537 115.537685,20.5403537 L125.178541,20.5403537 L122.644336,23.0776679 C122.435931,23.2901523 122.440058,23.6317939 122.648462,23.8442784 C122.861036,24.0525964 123.198693,24.0525964 123.411225,23.840112 L126.84578,20.382032 C126.891588,20.3320356 126.929142,20.2778729 126.958319,20.2112111 C126.987454,20.1445494 127,20.0737212 127,20.0028931 C127,19.8612368 126.945773,19.7279132 126.84578,19.6237542 L123.411225,16.1656741 C123.207029,15.9490233 122.865245,15.944857 122.652631,16.1531751" id="btn-arrow-icon-teal"></path>
        </g>
    </g>
</svg>